<svg width="150" height="150" viewBox="0 0 150 150" fill="none" xmlns="http://www.w3.org/2000/svg">
<g clip-path="url(#clip0)">
<mask id="path-2-outside-1" maskUnits="userSpaceOnUse" x="25" y="0" width="101" height="151" fill="black">
<rect fill="white" x="25" width="101" height="151"/>
<path fill-rule="evenodd" clip-rule="evenodd" d="M26 25.6711C26 12.0526 37.0526 1 50.6711 1H75.3421H100.013C113.632 1 124.684 12.0526 124.684 25.6711C124.684 39.2895 113.632 50.3421 100.013 50.3421L75.3421 50.342V99.6841V124.355C75.3421 137.974 64.2895 149.026 50.6711 149.026C37.0526 149.026 26 137.974 26 124.355C26 110.737 37.0526 99.6841 50.6711 99.6841C37.0526 99.6841 26 88.6315 26 75.0131C26 61.3947 37.0526 50.342 50.6711 50.342C37.0526 50.342 26 39.2895 26 25.6711Z"/>
</mask>
<path fill-rule="evenodd" clip-rule="evenodd" d="M26 25.6711C26 12.0526 37.0526 1 50.6711 1H75.3421H100.013C113.632 1 124.684 12.0526 124.684 25.6711C124.684 39.2895 113.632 50.3421 100.013 50.3421L75.3421 50.342V99.6841V124.355C75.3421 137.974 64.2895 149.026 50.6711 149.026C37.0526 149.026 26 137.974 26 124.355C26 110.737 37.0526 99.6841 50.6711 99.6841C37.0526 99.6841 26 88.6315 26 75.0131C26 61.3947 37.0526 50.342 50.6711 50.342C37.0526 50.342 26 39.2895 26 25.6711Z" fill="#FF7261"/>
<path d="M100.013 50.3421L100.013 51.3421H100.013V50.3421ZM75.3421 50.342L75.3421 49.342L74.3421 49.342V50.342H75.3421ZM50.6711 0C36.5003 0 25 11.5003 25 25.6711H27C27 12.6049 37.6049 2 50.6711 2V0ZM75.3421 0H50.6711V2H75.3421V0ZM100.013 0H75.3421V2H100.013V0ZM125.684 25.6711C125.684 11.5003 114.184 0 100.013 0V2C113.079 2 123.684 12.6049 123.684 25.6711H125.684ZM100.013 51.3421C114.184 51.3421 125.684 39.8418 125.684 25.6711H123.684C123.684 38.7372 113.079 49.3421 100.013 49.3421V51.3421ZM75.3421 51.342L100.013 51.3421L100.013 49.3421L75.3421 49.342L75.3421 51.342ZM76.3421 99.6841V50.342H74.3421V99.6841H76.3421ZM76.3421 124.355V99.6841H74.3421V124.355H76.3421ZM50.6711 150.026C64.8418 150.026 76.3421 138.526 76.3421 124.355H74.3421C74.3421 137.421 63.7372 148.026 50.6711 148.026V150.026ZM25 124.355C25 138.526 36.5003 150.026 50.6711 150.026V148.026C37.6049 148.026 27 137.421 27 124.355H25ZM50.6711 98.6841C36.5003 98.6841 25 110.184 25 124.355H27C27 111.289 37.6049 100.684 50.6711 100.684V98.6841ZM25 75.0131C25 89.1838 36.5003 100.684 50.6711 100.684V98.6841C37.6049 98.6841 27 88.0792 27 75.0131H25ZM50.6711 49.342C36.5003 49.342 25 60.8424 25 75.0131H27C27 61.9469 37.6049 51.342 50.6711 51.342V49.342ZM25 25.6711C25 39.8418 36.5003 51.342 50.6711 51.342V49.342C37.6049 49.342 27 38.7372 27 25.6711H25Z" fill="black" mask="url(#path-2-outside-1)"/>
<path d="M50.6678 149.013C64.2862 149.013 75.3388 137.96 75.3388 124.342V99.6711H50.6678C37.0494 99.6711 25.9967 110.724 25.9967 124.342C25.9967 137.96 37.0494 149.013 50.6678 149.013Z" fill="#0ACE82"/>
<path d="M25.9967 75C25.9967 61.3816 37.0494 50.3289 50.6678 50.3289H75.3388V99.671H50.6678C37.0494 99.671 25.9967 88.6184 25.9967 75Z" fill="#A259FF"/>
<path d="M25.9967 25.6579C25.9967 12.0395 37.0494 0.986893 50.6678 0.986893H75.3388V50.329H50.6678C37.0494 50.329 25.9967 39.2764 25.9967 25.6579Z" fill="#F34E1E"/>
<path d="M75.3388 0.986893H100.01C113.628 0.986893 124.681 12.0395 124.681 25.6579C124.681 39.2764 113.628 50.329 100.01 50.329H75.3388V0.986893Z" fill="#FF7261"/>
<path d="M124.181 75C124.181 88.3422 113.352 99.171 100.01 99.171C86.6676 99.171 75.8388 88.3422 75.8388 75C75.8388 61.6577 86.6676 50.8289 100.01 50.8289C113.352 50.8289 124.181 61.6577 124.181 75Z" fill="#1ABCFD" stroke="black"/>
</g>
<defs>
<clipPath id="clip0">
<rect width="150" height="150" fill="white"/>
</clipPath>
</defs>
</svg>
