<svg width="150" height="150" viewBox="0 0 150 150" fill="none" xmlns="http://www.w3.org/2000/svg">
<mask id="path-2-inside-1" fill="white">
<path fill-rule="evenodd" clip-rule="evenodd" d="M32.9198 79.3354C37.9582 94.0279 24.6916 106.521 13.3943 113.771V113.843C7.67927 117.565 -3.19506 125.092 10.9778 126.107C17.8286 126.59 24.0512 124.766 30.0925 121.697C30.4411 121.52 30.8991 121.297 31.4349 121.035C35.0403 119.272 42.1748 115.785 43.3108 113.324C42.9665 114.077 42.5876 114.883 42.1883 115.733C38.4536 123.679 32.9237 135.446 37.0279 143.228C42.5738 153.849 56.6742 133.925 59.4894 129.816C59.8402 129.304 60.3385 128.47 60.9526 127.443C64.7374 121.112 72.9228 107.419 78.1208 116.079C80.5418 120.105 81.3229 124.902 82.1069 129.717C83.111 135.884 84.1198 142.079 88.5843 146.72C98.202 156.724 103.567 141.355 103.639 133.767C103.645 133.234 103.627 132.474 103.606 131.558C103.435 124.215 103.032 106.865 112.399 116.211C113.785 117.595 115.313 119.381 116.966 121.313C122.808 128.142 130.203 136.787 138.34 135.846C147.496 134.793 137.657 122.471 132.572 116.103C131.355 114.581 130.411 113.398 130.064 112.792C131.586 114.049 145.771 122.833 145.771 115.583C145.79 111.338 140.582 107.612 136.52 104.705C135.286 103.823 134.158 103.016 133.314 102.292C119.878 90.8501 122.561 79.4925 128.602 64.7759C139.041 39.2817 121.703 10.0176 96.5105 2.45394C69.3005 -5.76222 39.2027 7.10574 29.0775 34.2795C26.5254 41.1604 25.4309 48.4965 25.8636 55.8227C26.2341 62.1392 28.3501 67.4959 30.5422 73.0451C31.3525 75.0962 32.1731 77.1736 32.9198 79.3354Z"/>
</mask>
<path fill-rule="evenodd" clip-rule="evenodd" d="M32.9198 79.3354C37.9582 94.0279 24.6916 106.521 13.3943 113.771V113.843C7.67927 117.565 -3.19506 125.092 10.9778 126.107C17.8286 126.59 24.0512 124.766 30.0925 121.697C30.4411 121.52 30.8991 121.297 31.4349 121.035C35.0403 119.272 42.1748 115.785 43.3108 113.324C42.9665 114.077 42.5876 114.883 42.1883 115.733C38.4536 123.679 32.9237 135.446 37.0279 143.228C42.5738 153.849 56.6742 133.925 59.4894 129.816C59.8402 129.304 60.3385 128.47 60.9526 127.443C64.7374 121.112 72.9228 107.419 78.1208 116.079C80.5418 120.105 81.3229 124.902 82.1069 129.717C83.111 135.884 84.1198 142.079 88.5843 146.72C98.202 156.724 103.567 141.355 103.639 133.767C103.645 133.234 103.627 132.474 103.606 131.558C103.435 124.215 103.032 106.865 112.399 116.211C113.785 117.595 115.313 119.381 116.966 121.313C122.808 128.142 130.203 136.787 138.34 135.846C147.496 134.793 137.657 122.471 132.572 116.103C131.355 114.581 130.411 113.398 130.064 112.792C131.586 114.049 145.771 122.833 145.771 115.583C145.79 111.338 140.582 107.612 136.52 104.705C135.286 103.823 134.158 103.016 133.314 102.292C119.878 90.8501 122.561 79.4925 128.602 64.7759C139.041 39.2817 121.703 10.0176 96.5105 2.45394C69.3005 -5.76222 39.2027 7.10574 29.0775 34.2795C26.5254 41.1604 25.4309 48.4965 25.8636 55.8227C26.2341 62.1392 28.3501 67.4959 30.5422 73.0451C31.3525 75.0962 32.1731 77.1736 32.9198 79.3354Z" fill="#2F93E0"/>
<path d="M13.3943 113.771L12.8543 112.929L12.3943 113.224V113.771H13.3943ZM32.9198 79.3354L33.8657 79.0111L33.865 79.009L32.9198 79.3354ZM13.3943 113.843L13.94 114.681L14.3943 114.385V113.843H13.3943ZM10.9778 126.107L10.9064 127.105L10.9074 127.105L10.9778 126.107ZM30.0925 121.697L29.6405 120.805L29.6396 120.805L30.0925 121.697ZM31.4349 121.035L31.8741 121.933L31.8741 121.933L31.4349 121.035ZM43.3108 113.324L44.2202 113.74L42.4029 112.905L43.3108 113.324ZM42.1883 115.733L41.2832 115.307L41.2832 115.307L42.1883 115.733ZM37.0279 143.228L37.9143 142.765L37.9124 142.762L37.0279 143.228ZM59.4894 129.816L60.3143 130.382L60.3147 130.381L59.4894 129.816ZM60.9526 127.443L60.0943 126.93L60.0943 126.93L60.9526 127.443ZM78.1208 116.079L77.2633 116.593L77.2638 116.594L78.1208 116.079ZM82.1069 129.717L83.0939 129.556L83.0939 129.556L82.1069 129.717ZM88.5843 146.72L89.3052 146.027L89.305 146.027L88.5843 146.72ZM103.639 133.767L102.639 133.757L102.639 133.758L103.639 133.767ZM103.606 131.558L104.605 131.535L104.605 131.535L103.606 131.558ZM112.399 116.211L113.105 115.504L113.105 115.504L112.399 116.211ZM116.966 121.313L117.726 120.663L117.726 120.663L116.966 121.313ZM138.34 135.846L138.226 134.852L138.225 134.852L138.34 135.846ZM132.572 116.103L133.353 115.479L133.353 115.479L132.572 116.103ZM130.064 112.792L130.7 112.021L129.196 113.289L130.064 112.792ZM145.771 115.583L144.771 115.579V115.583H145.771ZM136.52 104.705L137.101 103.892L137.101 103.892L136.52 104.705ZM133.314 102.292L133.965 101.533L133.962 101.531L133.314 102.292ZM128.602 64.7759L129.527 65.1557L129.527 65.1549L128.602 64.7759ZM96.5105 2.45394L96.2214 3.41125L96.2229 3.4117L96.5105 2.45394ZM29.0775 34.2795L28.1405 33.9303L28.14 33.9317L29.0775 34.2795ZM25.8636 55.8227L26.8619 55.7642L26.8618 55.7638L25.8636 55.8227ZM30.5422 73.0451L29.6122 73.4125L29.6122 73.4125L30.5422 73.0451ZM13.9344 114.612C19.636 110.954 25.898 105.934 30.1026 99.917C34.321 93.8801 36.5199 86.7509 33.8657 79.0111L31.9739 79.6598C34.3581 86.6124 32.4429 93.0761 28.4632 98.7714C24.4698 104.486 18.4498 109.338 12.8543 112.929L13.9344 114.612ZM14.3943 113.843V113.771H12.3943V113.843H14.3943ZM11.0492 125.11C9.31925 124.986 8.0165 124.765 7.06196 124.483C6.0965 124.197 5.56331 123.87 5.28838 123.588C5.04822 123.342 4.98192 123.111 5.00386 122.844C5.02988 122.526 5.19059 122.095 5.55827 121.548C6.29534 120.45 7.64017 119.209 9.22632 117.976C10.7934 116.758 12.5155 115.609 13.94 114.681L12.8487 113.005C11.4157 113.938 9.63532 115.125 7.99898 116.397C6.38174 117.654 4.82222 119.056 3.89793 120.433C3.43493 121.122 3.07572 121.886 3.01055 122.68C2.9413 123.525 3.21255 124.324 3.85669 124.984C4.46606 125.609 5.3639 126.066 6.49421 126.4C7.63542 126.738 9.09316 126.975 10.9064 127.105L11.0492 125.11ZM29.6396 120.805C23.7049 123.82 17.6653 125.576 11.0482 125.11L10.9074 127.105C17.992 127.604 24.3975 125.712 30.5454 122.589L29.6396 120.805ZM30.9958 120.136C30.4625 120.397 29.997 120.624 29.6405 120.805L30.5445 122.589C30.8852 122.416 31.3356 122.196 31.8741 121.933L30.9958 120.136ZM42.4029 112.905C42.2237 113.293 41.7275 113.85 40.8622 114.535C40.0281 115.196 38.9608 115.891 37.7913 116.58C35.4538 117.957 32.8034 119.253 30.9958 120.136L31.8741 121.933C33.6718 121.054 36.3913 119.726 38.8064 118.303C40.0133 117.592 41.1679 116.844 42.1037 116.103C43.0082 115.387 43.8299 114.585 44.2188 113.743L42.4029 112.905ZM43.0933 116.158C43.4922 115.309 43.8733 114.498 44.2202 113.74L42.4014 112.908C42.0596 113.655 41.6831 114.456 41.2832 115.307L43.0933 116.158ZM37.9124 142.762C36.0415 139.214 36.3168 134.64 37.6334 129.805C38.943 124.995 41.2196 120.145 43.0933 116.158L41.2832 115.307C39.4222 119.267 37.0666 124.273 35.7036 129.279C34.3477 134.259 33.9101 139.46 36.1433 143.695L37.9124 142.762ZM58.6645 129.251C57.258 131.304 53.0853 137.225 48.6089 141.307C46.3488 143.367 44.1474 144.83 42.281 145.211C41.3794 145.395 40.5999 145.319 39.9191 144.976C39.2321 144.631 38.5385 143.961 37.9143 142.765L36.1415 143.691C36.9037 145.151 37.8639 146.181 39.0205 146.763C40.1834 147.348 41.4374 147.425 42.6815 147.171C45.1067 146.675 47.6462 144.891 49.9564 142.785C54.6204 138.532 58.9056 132.437 60.3143 130.382L58.6645 129.251ZM60.0943 126.93C59.4719 127.971 58.9931 128.771 58.6641 129.252L60.3147 130.381C60.6874 129.837 61.2051 128.97 61.8109 127.956L60.0943 126.93ZM78.9782 115.564C78.2719 114.387 77.4711 113.516 76.5645 112.966C75.6428 112.407 74.6616 112.211 73.6723 112.316C71.7614 112.518 69.925 113.826 68.3038 115.428C65.0264 118.667 61.9687 123.794 60.0943 126.93L61.8109 127.956C63.7213 124.76 66.6487 119.876 69.7097 116.85C71.2577 115.32 72.6788 114.432 73.8828 114.305C74.4511 114.245 74.9917 114.351 75.5273 114.676C76.0781 115.01 76.6701 115.605 77.2633 116.593L78.9782 115.564ZM83.0939 129.556C82.3164 124.781 81.5154 119.783 78.9777 115.563L77.2638 116.594C79.5682 120.426 80.3294 125.023 81.1199 129.878L83.0939 129.556ZM89.305 146.027C85.0919 141.647 84.1075 135.781 83.0939 129.556L81.1199 129.878C82.1145 135.986 83.1477 142.511 87.8636 147.413L89.305 146.027ZM102.639 133.758C102.604 137.408 101.279 142.928 98.88 146.256C97.6871 147.911 96.3447 148.869 94.902 148.987C93.469 149.105 91.6063 148.421 89.3052 146.027L87.8634 147.413C90.3711 150.022 92.7856 151.168 95.0658 150.98C97.3362 150.794 99.1428 149.311 100.502 147.426C103.208 143.673 104.602 137.715 104.639 133.777L102.639 133.758ZM102.606 131.581C102.627 132.505 102.644 133.245 102.639 133.757L104.639 133.778C104.645 133.223 104.626 132.443 104.605 131.535L102.606 131.581ZM113.105 115.504C111.89 114.291 110.776 113.451 109.741 112.977C108.694 112.497 107.674 112.37 106.732 112.686C105.802 112.996 105.114 113.682 104.607 114.494C104.101 115.303 103.733 116.303 103.457 117.378C102.366 121.628 102.522 127.958 102.606 131.581L104.605 131.535C104.519 127.815 104.387 121.799 105.394 117.875C105.643 116.906 105.947 116.123 106.303 115.554C106.658 114.987 107.019 114.698 107.366 114.582C107.701 114.47 108.185 114.464 108.908 114.795C109.644 115.133 110.566 115.795 111.693 116.919L113.105 115.504ZM117.726 120.663C116.081 118.741 114.525 116.92 113.105 115.504L111.693 116.919C113.045 118.269 114.545 120.022 116.206 121.964L117.726 120.663ZM138.225 134.852C134.555 135.277 130.94 133.551 127.42 130.715C123.909 127.886 120.66 124.093 117.726 120.663L116.206 121.964C119.114 125.363 122.484 129.306 126.165 132.272C129.837 135.231 133.989 137.356 138.455 136.839L138.225 134.852ZM131.79 116.728C134.354 119.938 138.005 124.518 139.897 128.405C140.86 130.384 141.252 131.958 141.037 133.013C140.939 133.493 140.716 133.865 140.328 134.158C139.919 134.466 139.26 134.733 138.226 134.852L138.455 136.839C139.709 136.695 140.747 136.347 141.532 135.755C142.338 135.147 142.809 134.334 142.997 133.412C143.353 131.661 142.684 129.56 141.695 127.53C139.686 123.402 135.874 118.637 133.353 115.479L131.79 116.728ZM129.196 113.289C129.593 113.982 130.609 115.248 131.79 116.728L133.353 115.479C132.102 113.913 131.229 112.815 130.931 112.295L129.196 113.289ZM144.771 115.583C144.771 116.331 144.59 116.726 144.403 116.941C144.218 117.155 143.914 117.324 143.402 117.391C142.315 117.532 140.698 117.161 138.849 116.445C137.045 115.746 135.177 114.783 133.658 113.911C132.122 113.028 131.012 112.278 130.7 112.021L129.427 113.563C129.877 113.934 131.111 114.754 132.662 115.645C134.232 116.546 136.195 117.562 138.127 118.31C140.016 119.041 142.04 119.585 143.66 119.374C144.501 119.264 145.318 118.94 145.915 118.251C146.509 117.564 146.771 116.648 146.771 115.583H144.771ZM135.938 105.518C137.984 106.983 140.228 108.592 141.965 110.346C143.722 112.121 144.779 113.867 144.771 115.579L146.771 115.588C146.782 113.055 145.244 110.815 143.386 108.939C141.509 107.042 139.118 105.335 137.101 103.892L135.938 105.518ZM132.663 103.052C133.548 103.81 134.717 104.645 135.938 105.518L137.101 103.892C135.856 103 134.768 102.221 133.965 101.533L132.663 103.052ZM127.677 64.3962C124.657 71.7533 122.391 78.4538 122.655 84.8035C122.922 91.2401 125.776 97.1864 132.666 103.054L133.962 101.531C127.416 95.956 124.893 90.5024 124.653 84.7205C124.409 78.8517 126.506 72.5151 129.527 65.1557L127.677 64.3962ZM96.2229 3.4117C120.946 10.8346 137.855 39.5383 127.676 64.397L129.527 65.1549C140.227 39.025 122.459 9.20072 96.798 1.49617L96.2229 3.4117ZM30.0146 34.6286C39.9363 8.00117 69.4619 -4.66889 96.2214 3.41125L96.7995 1.49663C69.1391 -6.85555 38.4692 6.21031 28.1405 33.9303L30.0146 34.6286ZM26.8618 55.7638C26.4374 48.5759 27.5111 41.3782 30.0151 34.6272L28.14 33.9317C25.5396 40.9425 24.4245 48.4172 24.8653 55.8817L26.8618 55.7638ZM31.4723 72.6777C29.2734 67.1112 27.2216 61.8974 26.8619 55.7642L24.8653 55.8813C25.2465 62.3809 27.4269 67.8806 29.6122 73.4125L31.4723 72.6777ZM33.865 79.009C33.11 76.8232 32.2814 74.7258 31.4723 72.6777L29.6122 73.4125C30.4236 75.4665 31.2361 77.524 31.9746 79.6619L33.865 79.009Z" fill="black" mask="url(#path-2-inside-1)"/>
</svg>
