<svg width="150" height="150" viewBox="0 0 150 150" fill="none" xmlns="http://www.w3.org/2000/svg">
<path d="M0 0H150V150H0V0Z" fill="url(#paint0_linear)"/>
<path d="M35.25 33.1875H15V20.0625H69.9375V33.1875H49.875V84.9187H35.25V33.1875V33.1875ZM69.9375 52.6312C69.9375 33.8812 83.8125 18.6938 103.875 18.6938C116.063 18.6938 123.563 22.8187 129.563 28.8187L120.375 39.3187C115.313 34.8187 110.25 32.0062 103.688 32.0062C92.8125 32.0062 84.75 41.1937 84.75 52.2562V52.4437C84.75 63.6937 92.4375 72.8812 103.688 72.8812C111.188 72.8812 115.688 69.8812 120.75 65.1937L129.938 74.3812C123.188 81.5062 115.875 86.0062 103.313 86.0062C98.9023 86.1062 94.5176 85.3112 90.4232 83.6693C86.3287 82.0275 82.6096 79.5728 79.4903 76.4535C76.371 73.3342 73.9163 69.615 72.2744 65.5206C70.6325 61.4262 69.8376 57.0414 69.9375 52.6312V52.6312ZM15 120H69.9375V129.937H15V120Z" fill="white"/>
<defs>
<linearGradient id="paint0_linear" x1="74.9999" y1="1.8375" x2="74.9999" y2="151.837" gradientUnits="userSpaceOnUse">
<stop/>
<stop offset="1"/>
</linearGradient>
</defs>
</svg>
